<?xml version="1.0" encoding="utf-8"?>
<!-- Generator: Adobe Illustrator 26.0.3, SVG Export Plug-In . SVG Version: 6.00 Build 0)  -->
<svg version="1.0"
	 id="svg2" inkscape:version="0.91 r13725" sodipodi:docname="ajax_logo.svg" xmlns:cc="http://creativecommons.org/ns#" xmlns:dc="http://purl.org/dc/elements/1.1/" xmlns:inkscape="http://www.inkscape.org/namespaces/inkscape" xmlns:rdf="http://www.w3.org/1999/02/22-rdf-syntax-ns#" xmlns:sodipodi="http://sodipodi.sourceforge.net/DTD/sodipodi-0.dtd" xmlns:svg="http://www.w3.org/2000/svg"
	 xmlns="http://www.w3.org/2000/svg" xmlns:xlink="http://www.w3.org/1999/xlink" x="0px" y="0px" viewBox="0 0 554.5 388.8"
	 style="enable-background:new 0 0 554.5 388.8;" xml:space="preserve">
<style type="text/css">
	.st0{fill-rule:evenodd;clip-rule:evenodd;fill:#8C96A1;}
	.st1{fill:#8C96A1;}
	
		.st2{fill-rule:evenodd;clip-rule:evenodd;fill:url(#path3338_00000155869467089785761290000011090714494844219284_);stroke:#0C4C75;stroke-width:0.5;}
</style>
<g id="g4204" transform="translate(0,2)">
	<path id="path4206" inkscape:connector-curvature="0" class="st0" d="M127.3,189.7l-36.6,82h23.9l7.1-17.4h36.8l7.1,17.4h23.9
		l-36.7-82C152.9,189.7,127.3,189.7,127.3,189.7z M140.3,209l6.2,15.6l6.2,15.6l-12.4,0l-12.4,0l6.2-15.6L140.3,209L140.3,209z"/>
	<path id="path4208" inkscape:connector-curvature="0" class="st0" d="M304.9,189.7l-36.6,82h23.9l7.1-17.4h36.8l7.1,17.4h23.9
		l-36.7-82C330.5,189.7,304.9,189.7,304.9,189.7z M317.9,209l6.2,15.6l6.2,15.6l-12.4,0l-12.4,0l6.2-15.6L317.9,209L317.9,209z"/>
	<path id="path4210" inkscape:connector-curvature="0" class="st0" d="M373.5,189.4h27.2l17.4,26.2l18.4-26.2h26.8L431,229.1
		l34.4,42.8h-27.2l-19.7-27.9L399.1,272h-29l35-42.4L373.5,189.4z"/>
	<path id="path4212" inkscape:connector-curvature="0" class="st1" d="M258.4,154.7l-32.6,32l11.2,10.1l10.6-10.7l1.2,0v61.2
		c0,7.8-6.3,14-14,14h-11.1c-7.8,0-14-6.3-14-14v-6.5h-21.7v8.1c0,14,11.3,25.3,25.3,25.3h28.8c14,0,25.3-11.3,25.3-25.3v-62.7
		l0.8,0l12.4,10.6l9.7-10.1L258.4,154.7L258.4,154.7z"/>
	<path id="path4214" inkscape:connector-curvature="0" class="st1" d="M198.7,234.1l32.6-32l-11.2-10.1l-10.6,10.7l-1.2,0v-61.2
		c0-7.8,6.3-14,14-14h11.1c7.8,0,14,6.3,14,14v6.5h21.7v-8.1c0-14-11.3-25.3-25.3-25.3H215c-14,0-25.3,11.3-25.3,25.3v62.7l-0.8,0
		l-12.4-10.6l-9.7,10.1L198.7,234.1L198.7,234.1z"/>
</g>
<linearGradient id="path3338_00000152969681949360705910000010290498064844255398_" gradientUnits="userSpaceOnUse" x1="278.0732" y1="278.2973" x2="278.0732" y2="117.7151" gradientTransform="matrix(1 0 0 -1 0 391.5)">
	<stop  offset="0" style="stop-color:#70B0DF"/>
	<stop  offset="0.5" style="stop-color:#1B81C5"/>
	<stop  offset="1" style="stop-color:#4A98CE"/>
</linearGradient>
<path id="path3338" style="fill-rule:evenodd;clip-rule:evenodd;fill:url(#path3338_00000152969681949360705910000010290498064844255398_);stroke:#0C4C75;stroke-width:0.5;" d="
	M215,114.5c-14,0-25.3,11.3-25.3,25.3v62.7l-0.8,0l-12.4-10.6l-9.7,10.1l32,32l32.6-32l-11.2-10.1l-10.6,10.7l-1.2,0v-61.2
	c0-7.8,6.3-14,14-14h11.1c7.8,0,14,6.3,14,14v6.5h21.7v-8.1c0-14-11.3-25.3-25.3-25.3H215z M258.4,154.7l-32.6,32l11.2,10.1
	l10.6-10.7l1.2,0v61.2c0,7.8-6.3,14-14,14h-11.1c-7.8,0-14-6.3-14-14v-6.5h-21.7v8.1c0,14,11.3,25.3,25.3,25.3h28.8
	c14,0,25.3-11.3,25.3-25.3v-62.7l0.8,0l12.4,10.6l9.7-10.1L258.4,154.7z M373.5,189.4l31.6,40.1l-35,42.4h29l19.4-27.9l19.7,27.9
	h27.2L431,229.1l32.3-39.8h-26.8l-18.4,26.2l-17.4-26.2H373.5z M127.3,189.7l-36.6,82h23.9l7.1-17.4h36.8l7.1,17.4h23.9l-36.7-82
	H127.3z M304.9,189.7l-36.6,82h23.9l7.1-17.4h36.8l7.1,17.4h23.9l-36.7-82H304.9z M140.3,209l6.2,15.6l6.2,15.6l-12.4,0l-12.4,0
	l6.2-15.6L140.3,209z M317.9,209l6.2,15.6l6.2,15.6l-12.4,0l-12.4,0l6.2-15.6L317.9,209z"/>
</svg>
